<svg xmlns="http://www.w3.org/2000/svg" viewBox="0 0 22 22" version="1.1">
  <path d="M18.298 17.125l-2.982-3.399a6.383 6.383 0 001.395-3.635 6.447 6.447 0 00-.35-2.578 6.552 6.552 0 00-1.259-2.184 6.56 6.56 0 00-2.001-1.532 6.46 6.46 0 00-2.51-.682 6.447 6.447 0 00-2.578.35 6.547 6.547 0 00-2.184 1.259 6.56 6.56 0 00-1.532 2.002 6.458 6.458 0 00-.682 2.51 6.448 6.448 0 00.35 2.578 6.53 6.53 0 001.259 2.183 6.56 6.56 0 002.002 1.532 6.438 6.438 0 002.51.682 6.386 6.386 0 003.787-.91l2.982 3.39c.208.25.48.384.814.406.322.021.61-.078.86-.298.251-.22.387-.492.408-.815a1.14 1.14 0 00-.289-.859M12.916 12.8c-.87.762-1.876 1.105-3.024 1.03-1.147-.075-2.102-.546-2.864-1.414-.762-.87-1.106-1.877-1.031-3.024.075-1.148.547-2.102 1.415-2.864.869-.763 1.877-1.106 3.024-1.031 1.147.074 2.102.546 2.864 1.415s1.105 1.877 1.031 3.024c-.075 1.147-.546 2.102-1.415 2.864" fill="#4d4d4d"/>
</svg>
