<svg xmlns="http://www.w3.org/2000/svg" viewBox="0 0 512 512">
  <g fill="#616161" transform="matrix(1.11352 0 0 1.11352 3 .04)">
    <g transform="translate(96.47 82.983) scale(.3907)">
      <path d="M462.635 417.92c0 4.982-1.66 9.182-4.981 12.503-3.321 3.32-7.521 4.981-12.503 4.981H315.927c0 3.32.879 11.623 1.66 24.126.88 13.381 1.66 23.344 1.66 29.986 0 4.982-1.66 8.303-4.98 11.623-3.322 3.321-7.522 5.861-11.624 5.861h-90.057c-4.981 0-8.302-1.66-11.623-4.981-3.32-3.321-4.981-7.521-4.981-11.624 0-6.642.879-17.484 1.66-29.986.88-12.503 1.66-21.684 1.66-24.126H70.079c-4.981 0-9.181-1.66-12.502-4.981-3.321-3.321-4.982-7.521-4.982-12.503 0-4.981 1.66-9.181 4.982-12.502l112.522-112.522h-64.173c-4.981 0-9.182-1.66-12.502-4.982-3.321-3.32-4.982-7.52-4.982-12.502 0-4.982 1.66-9.182 4.982-12.503l112.521-112.522h-54.99c-4.982 0-9.182-1.66-12.503-4.981-4.2-4.981-5.86-9.181-5.86-14.163 0-4.981 1.66-9.181 4.98-12.502L245.113 11.98c3.32-3.319 7.52-4.98 12.502-4.98 4.981 0 9.181 1.66 12.502 4.981l107.54 107.541c3.322 3.32 4.982 7.521 4.982 12.502 0 4.982-1.66 9.182-4.981 12.503-3.321 3.32-7.521 4.981-12.503 4.981h-54.99l112.52 112.522c3.321 3.321 4.981 7.521 4.981 12.503 0 4.981-1.66 9.181-4.981 12.502-3.32 3.321-7.521 4.982-12.502 4.982H346.01l111.643 113.4c3.32 3.322 4.981 7.522 4.981 12.503z"/>
    </g>
    <path d="M445.885 402.87l-90.468-97.428c25.52-30.38 39.626-65.13 42.326-104.237 1.76-25.42-1.79-50.053-10.63-73.895-8.82-23.844-21.564-44.712-38.182-62.608-16.617-17.896-36.854-32.534-60.721-43.912-23.874-11.366-49.258-17.9-76.159-19.56-26.898-1.658-52.965 1.688-78.194 10.042-25.233 8.337-47.317 20.379-66.252 36.082-18.938 15.703-34.43 34.834-46.47 57.388C9.11 127.3 2.194 151.285.437 176.705c-1.759 25.42 1.79 50.047 10.627 73.895 8.824 23.84 21.565 44.706 38.182 62.601 16.618 17.9 36.863 32.535 60.728 43.916 23.87 11.398 49.252 17.9 76.153 19.559 41.389 2.552 79.68-6.16 114.872-26.113l90.486 97.16c6.304 7.172 14.528 11.071 24.693 11.698 9.78.603 18.486-2.252 26.094-8.567 7.614-6.31 11.74-14.093 12.38-23.335.637-9.416-2.245-17.632-8.77-24.636M282.595 278.867c-26.355 21.853-56.93 31.704-91.73 29.558-34.81-2.146-63.761-15.672-86.885-40.572-23.125-24.903-33.55-53.793-31.28-86.682 2.275-32.892 16.584-60.256 42.933-82.106 26.35-21.852 56.927-31.704 91.727-29.558 34.806 2.146 63.761 15.672 86.889 40.573 23.124 24.9 33.553 53.796 31.28 86.682-2.274 32.892-16.586 60.253-42.935 82.105"/>
  </g>
</svg>
