<svg xmlns="http://www.w3.org/2000/svg" version="1.1" x="0" y="0" viewBox="0 0 512 512" xml:space="preserve">
  <path d="M462.635 417.92c0 4.982-1.66 9.182-4.981 12.503-3.321 3.32-7.521 4.981-12.503 4.981H315.927c0 3.32.879 11.623 1.66 24.126.88 13.381 1.66 23.344 1.66 29.986 0 4.982-1.66 8.303-4.98 11.623-3.322 3.321-7.522 5.861-11.624 5.861h-90.057c-4.981 0-8.302-1.66-11.623-4.981-3.32-3.321-4.981-7.521-4.981-11.624 0-6.642.879-17.484 1.66-29.986.88-12.503 1.66-21.684 1.66-24.126H70.079c-4.981 0-9.181-1.66-12.502-4.981-3.321-3.321-4.982-7.521-4.982-12.503 0-4.981 1.66-9.181 4.982-12.502l112.522-112.522h-64.173c-4.981 0-9.182-1.66-12.502-4.982-3.321-3.32-4.982-7.52-4.982-12.502 0-4.982 1.66-9.182 4.982-12.503l112.521-112.522h-54.99c-4.982 0-9.182-1.66-12.503-4.981-4.2-4.981-5.86-9.181-5.86-14.163 0-4.981 1.66-9.181 4.98-12.502L245.113 11.98C248.433 8.661 252.633 7 257.615 7c4.981 0 9.181 1.66 12.502 4.981l107.54 107.541c3.322 3.32 4.982 7.521 4.982 12.502 0 4.982-1.66 9.182-4.981 12.503-3.321 3.32-7.521 4.981-12.503 4.981h-54.99L422.685 262.03c3.321 3.321 4.981 7.521 4.981 12.503 0 4.981-1.66 9.181-4.981 12.502-3.32 3.321-7.521 4.982-12.502 4.982H346.01l111.643 113.4c3.32 3.322 4.981 7.522 4.981 12.503z" fill="#333333"/>
</svg>
